<?xml version="1.0" encoding="UTF-8"?>
<svg id="Capa_1" data-name="Capa 1" xmlns="http://www.w3.org/2000/svg" viewBox="0 0 1263.58 590.71">
  <defs>
    <style>
      .cls-1 {
        fill: #fff;
      }
    </style>
  </defs>
  <g>
    <g>
      <path class="cls-1" d="M355.7,134.1c2.36-2.64,5.55-10.69,9.58-24.16l6.04-19.99,22.49-1.87c20.27-1.67,34.64-3.4,43.11-5.21,8.33-1.67,14.23-4.1,17.7-7.29,6.11-6.11,6.53-11.59,1.25-16.45-6.11-5.27-14.02-5.42-23.74-.42-8.75,4.58-26.41,8.02-53,10.31-26.59,2.29-41.62,1.7-45.09-1.77-3.75-3.47-10.1-6.21-19.06-8.22-8.95-2.01-16.63-2.4-23.01-1.15-8.89,1.67-23.88,1.04-44.98-1.87-5-.56-10.34-1.18-16.04-1.87-5.55-.69-10-1.25-13.33-1.67-3.05-.56-4.72-.83-5-.83-1.39,0-3.26,2.19-5.62,6.56-2.36,4.37-2.36,9.48,0,15.31,1.06,2.3,1.8,4.7,2.23,7.2,1.44.76,2.79,1.63,3.92,2.23,1.77.93,3.7,1.95,5.72,2.1,2.99.23,6.16-.36,9.09-.9,6.07-1.12,12.02-2.85,18.14-3.72,6-.86,12.21-.87,18.26-.65,3.47.13,6.94.44,10.37.98l22.86-.79c15.69-.55,27.28.9,34.78,4.37,6.39,3.19,9.58,6.63,9.58,10.31s-2.78,11.63-8.33,23.85c-4.86,10.69-7.29,16.94-7.29,18.74,0,2.78-4.37,12.84-13.12,30.2-6.96,14.02-12.29,23.73-16.06,29.31-.02.06-.01.11-.04.17-2.06,4.85-4.96,9.24-7.78,13.67-2.64,4.14-5.52,8.49-6.83,13.27-1.33,4.83-.81,9.77.79,14.44.38,1.1.66,2.19.81,3.26.56.5,1.07,1.05,1.49,1.71.2.31.38.63.56.95.14.07.28.14.43.2.03.01.02.01.03.01.03,0,.03.01.08.03.09.03.17.07.26.1.37.13.74.25,1.12.35.2.05.4.09.6.13.09.02.18.03.27.05.04,0,.05.01.07.01,0,0,0,0,.02,0,.38.04.76.07,1.15.07.1,0,.18.03.28.05.06-.02.09-.07.16-.08,2.52-.39,5.07-.69,7.52-1.42,2.41-.73,4.63-2.01,6.77-3.31,3.82-2.31,7.43-5.25,9.46-9.31,2.16-4.32,1.18-9.27,2.84-13.75.89-2.4,2.23-4.55,3.65-6.67-.11-.3-.22-.61-.26-.88-.35-2.15,1.56-5.73,5.73-10.72,4.03-5.14,6.04-9.16,6.04-12.08,0-3.75,5.35-17.35,16.04-40.82,1.94-4.3,4.37-8.33,7.29-12.08Z"/>
      <path class="cls-1" d="M745.29,203.03c-2.5-1.25-5.83-.28-9.99,2.92-1.11.97-2.92,2.29-5.42,3.96l-.62.42c-3.61-3.05-6.14-5.66-7.6-7.81-1.46-2.15-2.39-5.24-2.81-9.27-.83-6.8-1.25-16.38-1.25-28.74,0-2.92-.21-5.14-.63-6.66s-1.18-3.13-2.29-4.79c-1.11-1.67-2.92-3.89-5.41-6.66-4.72-5-8.89-7.84-12.5-8.54-3.75-.83-8.05.35-12.91,3.54-3.06,2.08-6.6,3.54-10.62,4.37-8.33,1.94-15.34,5.21-21.03,9.79-5.69,4.58-11.73,12.01-18.12,22.28-5,8.05-8.05,15.1-9.16,21.14-.6,3.24-.72,7.07-.39,11.46-.32.25-.63.44-.96.73-6.11,4.86-14.51,10.07-25.2,15.62-.42.28-1.67.77-3.75,1.46-5.41,1.53-9.86,2.29-13.33,2.29-4.86,0-8.58-1.42-11.14-4.27-2.57-2.85-4.27-7.6-5.1-14.27-2.36-17.91,2.5-39.98,14.58-66.23.83-1.94,2.25-5.73,4.27-11.35,2.01-5.62,3.85-9.82,5.52-12.6,1.94-3.61,5.97-9.68,12.08-18.22,6.11-8.54,11.35-16.1,15.72-22.7,4.37-6.59,8.09-14.12,11.14-22.6,3.05-8.47,3.75-15.83,2.08-22.07-1.53-6.25-4.1-8.82-7.71-7.71-4.17,1.25-10.62,9.3-19.37,24.16-1.25,2.08-2.08,3.54-2.5,4.37-1.67,2.5-13.19,20.62-34.57,54.35-1.39,2.22-2.81,4.89-4.27,8.02s-2.64,5.62-3.54,7.5c-.9,1.87-2.12,3.75-3.64,5.62-1.53,1.87-3.47,3.26-5.83,4.17-2.36.9-5.28,1.42-8.75,1.56-10.97,0-18.67,1.32-23.12,3.96-7.08,3.89-13.74,8.78-19.99,14.68-6.25,5.9-11.18,11.49-14.79,16.77-5.4,8.35-8.92,18.3-10.58,29.84-1.21.57-2.5,1.37-3.89,2.44-1.11.97-2.92,2.29-5.42,3.96l-.62.42c-3.61-3.05-6.14-5.66-7.6-7.81-1.46-2.15-2.39-5.24-2.81-9.27-.83-6.8-1.25-16.38-1.25-28.74,0-2.92-.21-5.14-.63-6.66s-1.18-3.13-2.29-4.79c-1.11-1.67-2.92-3.89-5.42-6.66-4.72-5-8.89-7.84-12.5-8.54-3.75-.83-8.05.35-12.91,3.54-3.06,2.08-6.6,3.54-10.62,4.37-8.33,1.94-15.34,5.21-21.03,9.79-5.69,4.58-11.73,12.01-18.12,22.28-5,8.05-8.05,15.1-9.16,21.14-1.11,6.04-.63,14.06,1.46,24.05,1.25,6.11,2.5,10.38,3.75,12.81s3.61,5.24,7.08,8.43c3.19,3.05,5.62,4.93,7.29,5.62,1.11.55,2.43.83,3.96.83.69,0,1.39-.07,2.08-.21,2.64-.69,6.66-1.25,12.08-1.67,4.72-.28,9.72-2.01,14.99-5.21,4.3-2.64,7.71-4.58,10.21-5.83,1.94-.55,4.23-2.77,6.87-6.66.83-1.11,1.87-3.12,3.12-6.04,2.64-5.69,5-9.09,7.08-10.2,1.67-.83,3.05-.97,4.16-.42,1.11.56,2.29,1.87,3.54,3.96l.63,1.04c1.11,2.08,2.15,3.54,3.12,4.37,3.89,3.61,7.91,5.28,12.08,5,1.39-.14,3.05-.76,5-1.87.55-.42,1.04-.69,1.46-.83,1.32-.7,2.53-1.4,3.68-2.1.65,5.9,2.14,10.79,4.55,14.59,1.39,2.22,2.92,3.51,4.58,3.85,1.67.35,5,.31,10-.1,3.61-.42,6.98-1.15,10.1-2.19,3.12-1.04,5.94-2.4,8.43-4.06,3.61-2.5,8.26-6.87,13.95-13.12,5.69-6.25,9.65-11.38,11.87-15.41,1.67-2.77,3.12-4.16,4.37-4.16,1.67.14,3.33,4.03,5,11.66.83,4.72,1.94,8.47,3.33,11.24,1.39,2.78,3.75,5.83,7.08,9.16,5.42,4.86,10.27,7.77,14.58,8.75,4.3.97,12.36.69,24.16-.83,2.22-.28,5.62-1.32,10.21-3.12.69-.28,1.73-.83,3.12-1.67,1.39-.83,2.36-1.39,2.92-1.67,3.47-1.39,6.87-3.19,10.21-5.42.28-.28,1.21-.94,2.81-1.98,1.6-1.04,2.81-1.84,3.64-2.39.31-.2.68-.49,1.05-.78,1,4.32,2.01,7.48,3.01,9.43,1.25,2.43,3.61,5.24,7.08,8.43,3.19,3.05,5.62,4.93,7.29,5.62,1.11.55,2.43.83,3.96.83.69,0,1.39-.07,2.08-.21,2.64-.69,6.66-1.25,12.08-1.67,4.72-.28,9.72-2.01,15-5.21,4.3-2.64,7.7-4.58,10.21-5.83,1.94-.55,4.23-2.77,6.87-6.66.83-1.11,1.88-3.12,3.12-6.04,2.64-5.69,5-9.09,7.08-10.2,1.67-.83,3.05-.97,4.17-.42,1.11.56,2.29,1.87,3.54,3.96l.63,1.04c1.11,2.08,2.15,3.54,3.12,4.37,3.89,3.61,7.91,5.28,12.08,5,1.39-.14,3.05-.76,5-1.87.56-.42,1.04-.69,1.46-.83,2.36-1.25,4.44-2.5,6.25-3.75,5-3.75,7.43-7.77,7.29-12.08,0-3.75-1.04-6.18-3.12-7.29ZM423.75,199.28c-.69,4.72-2.15,8.26-4.37,10.62-2.5,2.92-4.16,5.69-5,8.33-.69,2.5-3.68,5.83-8.95,10-1.39,1.11-2.57,2.01-3.54,2.71-.97.69-1.94,1.32-2.92,1.87-.83.42-1.74.77-2.71,1.04-.97.28-2.01.42-3.12.42-1.11.14-2.5.21-4.17.21-3.47,0-5.97-.35-7.5-1.04-1.39-.55-2.43-1.6-3.12-3.12-.69-1.8-1.25-4.58-1.67-8.33-.14-5-.76-8.54-1.87-10.62-.97-2.22-.69-5.76.83-10.62,1.53-5.14,3.92-10.62,7.18-16.45,3.26-5.83,6.77-10.62,10.52-14.37,4.3-4.44,7.15-7.01,8.54-7.71.42-.28.9-.42,1.46-.42.69,0,1.53.35,2.5,1.04,1.25.83,2.5,2.57,3.75,5.21,1.25,2.64,1.87,4.93,1.87,6.87,0,2.92,2.29,6.59,6.87,11.04,2.92,2.92,4.65,5.07,5.21,6.46.69,1.39.76,3.68.21,6.87ZM429.16,173.88c-.56-.83-1.11-2.84-1.67-6.04-.83-4.44-.9-7.29-.21-8.54.28-.42.55-.76.83-1.04,1.11.56,1.67,3.54,1.67,8.96,0,3.33-.21,5.55-.63,6.66ZM515.27,202.82c-9.72,12.36-16.52,18.74-20.41,19.16-3.33.42-5-3.61-5-12.08,0-6.8,1.04-12.5,3.12-17.08,1.81-4.3,5.87-10,12.18-17.08,6.32-7.08,12.11-12.43,17.39-16.04,4.3-3.05,8.78-4.61,13.43-4.69,4.65-.07,7.32,1.35,8.02,4.27.55,4.03-9.03,18.53-28.74,43.52ZM691.14,199.28c-.69,4.72-2.15,8.26-4.37,10.62-2.5,2.92-4.17,5.69-5,8.33-.69,2.5-3.68,5.83-8.95,10-1.39,1.11-2.57,2.01-3.54,2.71-.97.69-1.94,1.32-2.92,1.87-.83.42-1.73.77-2.71,1.04-.97.28-2.01.42-3.12.42-1.11.14-2.5.21-4.17.21-3.47,0-5.97-.35-7.5-1.04-1.39-.55-2.43-1.6-3.12-3.12-.69-1.8-1.25-4.58-1.67-8.33-.14-5-.76-8.54-1.87-10.62-.97-2.22-.69-5.76.83-10.62,1.53-5.14,3.92-10.62,7.18-16.45,3.26-5.83,6.77-10.62,10.52-14.37,4.3-4.44,7.15-7.01,8.54-7.71.42-.28.9-.42,1.46-.42.69,0,1.53.35,2.5,1.04,1.25.83,2.5,2.57,3.75,5.21,1.25,2.64,1.87,4.93,1.87,6.87,0,2.92,2.29,6.59,6.87,11.04,2.92,2.92,4.65,5.07,5.21,6.46.69,1.39.76,3.68.21,6.87ZM696.56,173.88c-.56-.83-1.11-2.84-1.67-6.04-.83-4.44-.9-7.29-.21-8.54.28-.42.56-.76.83-1.04,1.11.56,1.67,3.54,1.67,8.96,0,3.33-.21,5.55-.63,6.66Z"/>
    </g>
    <path class="cls-1" d="M1042.88,216.67c-2.29-.48-4.96.52-8.02,3.02-1.39,1.11-5.14,2.98-11.24,5.62-6.11,2.64-10.76,4.51-13.95,5.62-8.47,2.5-16.31,4.23-23.53,5.21-4.58.83-7.74,1.04-9.48.63s-3.71-1.67-5.93-3.75c-3.47-3.33-5.21-5.9-5.21-7.71,0-2.22,3.05-9.09,9.16-20.62,1.67-3.19,4.41-7.77,8.23-13.74,3.82-5.97,6.8-10.83,8.96-14.58,2.15-3.75,3.95-8.5,5.41-14.27,1.46-5.76,1.77-11.35.94-16.77-.97-6.94-7.43-10.9-19.37-11.87-11.52-.83-21.03,2.64-28.53,10.41-1.81,1.81-4.17,4.72-7.08,8.75-.56.97-1.11,2.05-1.66,3.23-.56,1.18-1.04,2.33-1.46,3.44s-.83,2.46-1.25,4.06c-.42,1.6-.76,2.85-1.04,3.75-.28.9-.59,2.26-.94,4.06-.35,1.81-.59,2.99-.73,3.54-2.08,9.44-3.13,17.08-3.13,22.91,0,3.07.31,6.31.87,9.69-.71.51-1.47,1.05-2.32,1.66-4.37,3.12-7.6,5.66-9.68,7.6-1.81,1.67-2.98,2.74-3.54,3.23-.56.49-1.63,1.35-3.23,2.6-1.6,1.25-2.92,2.15-3.96,2.71-1.04.56-2.33,1.11-3.85,1.67-1.53.56-3.05.9-4.58,1.04-3.61.28-6.28-.42-8.02-2.08-1.74-1.67-2.6-3.82-2.6-6.46s.21-5.48.63-8.54c.69-4.86-.07-10.34-2.29-16.45-1.25-3.33-2.22-6.94-2.92-10.83-.69-3.89-1.32-8.22-1.88-13.01s-1.04-8.43-1.46-10.93c-1.11-6.39-2.92-13.33-5.42-20.82-.28-.69-.73-2.15-1.35-4.37-.62-2.22-1.15-3.96-1.56-5.21-.41-1.25-1.08-2.67-1.98-4.27-.9-1.6-1.91-2.74-3.02-3.44-2.36-1.8-5.17-2.74-8.43-2.81-3.26-.07-5.48.66-6.66,2.19-1.18,1.53-2.12,6.59-2.81,15.2-.42,3.75-1.11,8.26-2.08,13.54-.97,5.41-2.22,10.69-3.75,15.83-1.66,6.53-2.78,10.41-3.33,11.66-1.25,2.36-2.71,4.24-4.37,5.62-.14.14-1.01.69-2.6,1.67-1.6.97-2.67,1.87-3.23,2.71-.28.69-.49,2.15-.63,4.37-.14,2.5-.63,4.93-1.46,7.29-.83,2.22-1.87,3.82-3.12,4.79-.69.69-1.8,1.18-3.33,1.46-1.53.28-2.57.56-3.12.83-1.53.83-2.64,2.99-3.33,6.46-.28.97-.28,2.29,0,3.96.28,4.03,1.04,7.91,2.29,11.66,2.22,6.53,4.1,10.27,5.62,11.24.56.42,1.32.66,2.29.73.97.07,1.88.1,2.71.1h2.29c3.33.28,7.43.76,12.29,1.46,6.8.97,11.59,1.53,14.37,1.67s5.07-.35,6.87-1.46c1.39-.69,2.81-1.25,4.27-1.67,1.46-.42,3.19-.63,5.21-.63s3.5.04,4.48.1c.97.07,2.81.24,5.52.52,2.71.28,4.34.42,4.89.42,1.81,1.67,5.07,1.81,9.79.42,4.58-.28,8.26-.97,11.04-2.08,2.92-1.39,6.25-4.03,10-7.91,1.11-.56,1.8-.9,2.08-1.04,3.61-1.53,7.08-3.4,10.41-5.62.42-.28,1.11-.76,2.08-1.46.25-.18.46-.33.69-.49.98,2.79,2.09,5.66,3.37,8.61,2.92,6.94,5.97,11.45,9.16,13.54,1.67,1.25,4.44,2.71,8.33,4.37,3.89,1.67,6.11,2.64,6.66,2.92,4.58,2.36,11.87,3.26,21.87,2.71,9.72-.56,18.81-2.57,27.28-6.04l.52-.21c.35-.14.8-.31,1.35-.52s1.11-.42,1.67-.62c.55-.21,1.08-.42,1.56-.63.48-.21.87-.38,1.15-.52,3.47-1.53,6.87-3.4,10.21-5.62.28-.28,1.21-.94,2.81-1.98,1.6-1.04,2.81-1.84,3.65-2.39.83-.56,1.91-1.39,3.23-2.5,1.32-1.11,2.33-2.12,3.02-3.02.69-.9,1.35-1.98,1.98-3.23.62-1.25.87-2.5.73-3.75,0-3.89-1.15-6.07-3.44-6.56ZM873.98,208.55c-1.11,4.79-4.79,7.88-11.04,9.27-1.66.28-3.71.14-6.14-.42-2.43-.55-4.69-1.39-6.77-2.5-2.08-1.11-3.47-2.15-4.16-3.12-.56-.83.97-5.1,4.58-12.81s6.25-12.74,7.91-15.1c1.25-1.67,2.29-4.3,3.12-7.91.69-3.89,1.53-5.83,2.5-5.83.83,0,2.98,5.07,6.46,15.2,3.47,10.69,4.65,18.43,3.54,23.22ZM964.47,188.66c-5.69,10.83-9.17,16.24-10.41,16.24-1.11,0-1.81-1.08-2.08-3.23-.28-2.15-.14-4.82.41-8.02.56-3.19,1.18-6.52,1.88-10,.83-3.47,1.94-6.87,3.33-10.2,1.39-3.33,2.78-5.83,4.16-7.5,1.67-2.08,3.92-2.74,6.77-1.98,2.85.76,4.27,2.47,4.27,5.1,0,2.22-2.78,8.75-8.33,19.58Z"/>
  </g>
  <path class="cls-1" d="M1249.14,442.06c-1.87-.34-4.13.52-6.77,2.6-5,4.03-11.94,8.33-20.83,12.91-.41.28-1.04.56-1.87.83-.56,0-1.11.07-1.66.21-14.72,4.58-23.39,4.23-26.03-1.04-1.25-1.94-1.29-6.04-.11-12.29,1.18-6.25,2.95-12.01,5.31-17.29,2.78-5.55,4.93-11.49,6.46-17.81,1.53-6.31,1.67-12.84.42-19.58-1.25-6.73-4.58-11.49-10-14.27-4.44-2.22-9.55-2.98-15.31-2.29-5.76.69-11.28,2.12-16.56,4.27-5.27,2.15-9.86,4.76-13.75,7.81-5,4.03-11.87,11.46-20.62,22.28-2.64,3.2-4.51,5.62-5.62,7.29-1.11,1.53-2.29,3.19-3.54,5-1.11,1.8-2.71,4.58-4.79,8.33-1.05,1.92-1.88,4.43-2.5,7.48-.9.49-1.83,1.09-2.81,1.89-.97.83-2.92,2.15-5.83,3.96-2.92,1.81-5.87,3.57-8.85,5.31-2.98,1.73-5.76,3.37-8.33,4.89l-3.85,2.29c-12.36,5.27-19.09,8.05-20.2,8.33-4.03.83-7.29,1.04-9.79.63-4.3-.83-7.46-3.05-9.47-6.66-2.01-3.61-2.26-7.5-.73-11.66,1.53-4.86,2.29-8.54,2.29-11.04,0-3.05,1.53-7.5,4.58-13.33,2.64-5.83,4.44-12.08,5.42-18.74.97-6.66.62-12.15-1.04-16.45-1.25-2.64-2.43-4.27-3.54-4.89-1.11-.62-3.89-.73-8.33-.31-5.97.83-13.12,3.89-21.45,9.16-3.61,2.36-6.32,3.99-8.12,4.89-1.81.9-3.33,1.39-4.58,1.46-1.25.07-2.08-.31-2.5-1.15-.42-.83-.76-2.15-1.04-3.96-.14-3.89-.35-5.97-.62-6.25,0-1.39-1.95-2.5-5.83-3.33-.97-.14-2.36-.49-4.16-1.04-1.67-.55-2.78-.83-3.33-.83-.56-.14-1.46-.28-2.71-.41-1.25-.14-2.22,0-2.92.41-.42.14-1.32.49-2.71,1.04-1.11.56-2.5,1.39-4.16,2.5-4.3,3.06-8.05,7.01-11.25,11.87-2.22,3.61-4.16,5.48-5.83,5.62-2.22.42-2.71-1.53-1.46-5.83.55-2.64.59-4.51.1-5.62-.49-1.11-1.46-1.56-2.92-1.35s-2.88.69-4.27,1.46c-1.39.76-2.71,1.63-3.96,2.6-5.41,4.16-10.41,11.17-14.99,21.03-1.25,2.36-2.53,6.35-3.85,11.98-1.32,5.62-2.67,9.89-4.06,12.81-3.07,5.88-5.3,10.7-6.71,14.5-2.54,1.52-5.25,3.07-8.18,4.66-1.25.69-3.89,1.6-7.91,2.71-.28.14-.97.45-2.08.94-1.11.49-2.15.87-3.12,1.15-.97.28-1.67.35-2.08.21-.83-.28-2.01-1.53-3.54-3.75-3.61-4.72-5.69-8.85-6.25-12.39-.56-3.54-.07-8.85,1.46-15.93,2.08-9.16,4.37-17.36,6.87-24.58,1.8-5,2.78-8.33,2.92-10,.14-1.66-.49-3.61-1.87-5.83-1.95-3.05-3.96-4.62-6.04-4.69-2.08-.07-5.49,1.29-10.21,4.06-3.19,1.94-5.35,2.98-6.46,3.12-1.11.14-2.5-.56-4.17-2.08-1.25-1.53-1.95-3.61-2.08-6.25-.14-2.78.42-8.54,1.66-17.28,1.53-13.61,1.53-21.38,0-23.33-1.25-1.39-3.61-2.25-7.08-2.6-3.47-.34-6.25.11-8.33,1.35-1.53,1.25-3.61,4.58-6.25,10-2.64,5.56-3.96,9.44-3.96,11.66,0,1.8-.1,3.61-.31,5.41-.21,1.81-.56,3.71-1.04,5.73-.49,2.01-.9,3.71-1.25,5.1-.35,1.39-.94,3.2-1.77,5.42-.83,2.22-1.43,3.85-1.77,4.89-.35,1.04-1.04,2.85-2.08,5.41-1.04,2.57-1.7,4.27-1.98,5.1-3.33,8.61-5.9,15.48-7.7,20.62v.21l-.11.31-.1.31c-1.95,3.47-3.96,6.11-6.04,7.91-.97.56-1.81,1.11-2.5,1.66-1.25.83-3.06,2.08-5.42,3.75l-.42.21c-2.36-1.94-4.1-3.47-5.21-4.58-1.11-1.11-2.15-2.67-3.12-4.69-.97-2.01-1.6-4.34-1.87-6.98-.69-6.53-1.04-15.76-1.04-27.7,0-2.78-.21-4.93-.63-6.46s-1.18-3.05-2.29-4.58c-1.11-1.66-2.85-3.82-5.21-6.46-4.58-4.86-8.61-7.63-12.08-8.33s-7.64.49-12.5,3.54c-2.92,2.08-6.25,3.47-10,4.16-8.05,1.95-14.85,5.14-20.41,9.58-5.56,4.3-11.31,11.39-17.29,21.24-5,7.77-7.98,14.58-8.95,20.41-.76,4.56-.61,10.29.41,17.15-.82.58-1.68,1.17-2.6,1.8-.14,0-.87.49-2.19,1.46-1.32.97-2.85,2.12-4.58,3.44-1.74,1.32-3.89,2.71-6.46,4.17-2.57,1.46-5.1,2.81-7.6,4.06-2.5,1.25-5.24,2.22-8.23,2.92-2.98.69-5.73.9-8.23.63-4.44-.42-7.6-.8-9.48-1.15-1.87-.35-3.33-1.04-4.37-2.08s-1.67-2.29-1.88-3.75c-.21-1.46-.1-2.74.31-3.85.42-1.11,1.11-2.43,2.08-3.95,1.11-1.94,5.79-9.54,14.06-22.81,5.14-8.25,9.41-15.33,12.8-21.25,5.7-7.9,11.31-15.88,16.74-23.97,6.31-9.4,13.67-18.98,17.97-29.52,4.18-10.23,4.02-21.94,4.82-32.8.35-4.67,2.97-18.79-2.79-21.82-.24-.5-.61-.98-1.11-1.2-.6-.27-1.2-.48-1.82-.66-5.9-4.84-14.87-2.76-19.85,3.23-3.31,3.98-4.93,8.93-6.05,13.91-1.35,5.99-2.59,11.9-4.69,17.69-4.15,11.38-10.92,21.47-16.93,31.9-5.78,10.03-10.28,20.33-12.42,31.76-1.52,8.09-2.28,16.42-3.93,24.51-.68,1.09-1.45,2.14-2.42,3.11-1.25,1.25-2.5,2.47-3.75,3.65s-2.53,2.4-3.85,3.64c-1.32,1.25-2.26,2.29-2.81,3.12-.85,1.21-1.47,2.58-1.95,4.05-1.25.9-3.08,2.21-5.54,3.97-4.37,3.12-7.6,5.66-9.68,7.6-1.81,1.67-2.98,2.74-3.54,3.23-.56.49-1.63,1.35-3.23,2.6-1.6,1.25-2.92,2.15-3.96,2.71s-2.33,1.11-3.85,1.66-3.05.9-4.58,1.04c-3.61.28-6.28-.42-8.02-2.08-1.74-1.66-2.6-3.82-2.6-6.46s.21-5.48.63-8.54c.69-4.86-.07-10.34-2.29-16.45-1.25-3.33-2.22-6.94-2.92-10.83-.69-3.89-1.32-8.23-1.87-13.02-.56-4.79-1.04-8.43-1.46-10.93-1.11-6.39-2.92-13.33-5.42-20.82-.28-.69-.73-2.15-1.35-4.37-.62-2.22-1.15-3.96-1.56-5.21-.42-1.25-1.08-2.67-1.98-4.27s-1.91-2.74-3.02-3.44c-2.36-1.8-5.17-2.74-8.43-2.81-3.26-.07-5.48.66-6.66,2.18-1.18,1.53-2.12,6.6-2.81,15.2-.42,3.75-1.11,8.26-2.08,13.53-.97,5.42-2.22,10.69-3.75,15.83-1.67,6.53-2.78,10.41-3.33,11.66-1.25,2.36-2.71,4.24-4.37,5.62-.14.14-1.01.69-2.6,1.66-1.6.98-2.67,1.88-3.23,2.71-.28.69-.49,2.15-.63,4.37-.14,2.5-.62,4.93-1.46,7.29-.83,2.22-1.87,3.82-3.12,4.79-.69.69-1.8,1.18-3.33,1.46-1.53.28-2.57.56-3.12.83-1.53.83-2.64,2.98-3.33,6.46-.28.97-.28,2.29,0,3.95.08,1.21.23,2.4.4,3.59-4.18,2.62-8.93,5.32-14.25,8.08-10.69,5.55-17.7,8.33-21.03,8.33-2.22,0-4.69-1.08-7.39-3.23s-5-4.86-6.87-8.12c-1.87-3.26-2.81-6.28-2.81-9.06,0-3.89,1.87-10.97,5.62-21.24,3.75-10.27,6.8-17.14,9.16-20.62,3.19-4.03,4.72-8.33,4.58-12.91-.14-4.58-1.81-8.47-5-11.66-2.5-2.22-4.58-3.47-6.25-3.75s-5.28.28-10.83,1.66c-13.75,2.92-23.81,6.59-30.2,11.04-3.75,2.64-6.11,3.89-7.08,3.75-.69-.14-1.22-1.39-1.56-3.75-.35-2.36-.94-3.82-1.77-4.37-2.36-1.11-5-1.21-7.91-.31s-5.21,2.26-6.87,4.06c-.83.83-1.6,1.73-2.29,2.71-4.58,5.41-10.07,14.82-16.45,28.22-6.39,13.4-10.69,21.97-12.91,25.72-4.02,5.97-6.39,10.14-7.08,12.5-.26.9-.37,1.86-.39,2.86-.56.3-1.11.59-1.69.89-.42.28-1.04.56-1.87.83-.56,0-1.11.07-1.66.21-14.72,4.58-23.39,4.23-26.03-1.04-1.25-1.94-1.29-6.04-.1-12.29,1.18-6.25,2.95-12.01,5.31-17.29,2.77-5.55,4.93-11.49,6.46-17.81,1.53-6.31,1.67-12.84.42-19.58-1.25-6.73-4.58-11.49-10-14.27-4.44-2.22-9.55-2.98-15.31-2.29-5.76.69-11.28,2.12-16.56,4.27-5.28,2.15-9.86,4.76-13.75,7.81-5,4.03-11.87,11.46-20.62,22.28-2.64,3.2-4.51,5.62-5.62,7.29-1.11,1.53-2.29,3.19-3.54,5-1.11,1.8-2.71,4.58-4.79,8.33-1.17,2.13-2.07,4.95-2.71,8.46-6.08,4.52-14.01,9.34-23.84,14.45-1.39.69-4.24,1.6-8.54,2.71-.42.14-1.22.45-2.4.94-1.18.49-2.29.9-3.33,1.25-1.04.35-1.77.45-2.19.31-.97-.28-2.29-1.6-3.96-3.96-3.89-4.86-6.14-9.09-6.77-12.7-.62-3.61-.1-9.16,1.56-16.66,2.22-9.44,4.72-17.84,7.5-25.2,1.94-5.14,2.98-8.6,3.12-10.41.14-1.81-.56-3.82-2.08-6.04-1.94-3.05-4.06-4.65-6.35-4.79-2.29-.14-6.01,1.25-11.14,4.17-3.47,2.08-5.83,3.16-7.08,3.23-1.25.07-2.71-.59-4.37-1.98-1.39-1.66-2.15-3.89-2.29-6.66-.14-2.64.42-8.54,1.67-17.7,1.66-14.02,1.66-22.07,0-24.16-1.25-1.39-3.79-2.26-7.6-2.6-3.82-.35-6.84.1-9.06,1.35-1.67,1.25-3.92,4.72-6.77,10.41-2.85,5.69-4.27,9.65-4.27,11.87,0,1.95-.1,3.85-.31,5.73-.21,1.87-.56,3.85-1.04,5.93-.49,2.08-.94,3.85-1.35,5.31-.42,1.46-1.08,3.33-1.98,5.62-.9,2.29-1.56,3.96-1.98,5s-1.18,2.88-2.29,5.52c-1.11,2.64-1.81,4.37-2.08,5.21-10.95,26.44-15.22,41.77-12.87,46.09,0,.02,0,.03,0,.05.09.75.17,1.11-.14,1.8-.41.93-.89,1.81-1.28,2.76-.46,1.12-.76,2.29-.98,3.47-2.84,4.46-6.15,8.45-10.49,10.19-.14,0-1.56.49-4.27,1.46-2.71.97-5.35,1.91-7.91,2.81-2.57.9-5.07,1.91-7.5,3.02-2.43,1.11-3.85,1.94-4.27,2.5-2.5,1.53-4.79,2.29-6.87,2.29-3.47.14-7.22-1.6-11.25-5.21-8.89-7.91-9.79-22.49-2.71-43.74,1.39-4.16,3.57-12.39,6.56-24.68,2.98-12.29,5.73-22.74,8.22-31.34,2.5-8.61,4.51-13.05,6.04-13.33,2.92-.28,6.52-.69,10.83-1.25,4.44-.56,8.75-.97,12.91-1.25,4.16-.28,7.91-.48,11.25-.63,3.33,0,5.55.07,6.66.21,2.78.42,4.3-.69,4.58-3.33.28-1.94-.59-3.26-2.6-3.96-2.01-.69-7.67-1.53-16.97-2.5-13.33-1.39-20.34-2.64-21.03-3.75-.69-.83.28-3.61,2.92-8.33,2.22-4.02,5-8.95,8.33-14.79,2.08-3.47,3.4-6.94,3.96-10.41s1.25-6.46,2.08-8.95c.69-1.94,1.81-4.65,3.33-8.12,5.42-12.63,8.12-20.75,8.12-24.36,0-6.25-5.83-6.59-17.49-1.04-3.61,1.81-7.08,4.37-10.41,7.71-3.33,3.33-6.39,7.46-9.16,12.39-2.78,4.93-4.93,8.99-6.46,12.19s-3.47,7.57-5.83,13.12l-1.25,2.5c-6.25,14.72-11.25,23.81-14.99,27.28-2.5,2.64-5.03,4.13-7.6,4.48-2.57.35-9.06.04-19.47-.94-3.33-.14-6.59.18-9.79.94-3.19.76-5.73,1.63-7.6,2.6-1.87.97-3.68,1.98-5.41,3.02s-2.67,1.63-2.81,1.77c-2.08.97-2.98,2.57-2.71,4.79.14.42.52.73,1.15.94.63.21,1.46.31,2.5.31h6.25c1.04,0,1.84.07,2.39.21,2.78.42,7.57.63,14.37.63,2.92-.14,5.76-.14,8.54,0,4.58.42,7.71,1.11,9.37,2.08l-1.98,16.14c-1.32,10.76-2.71,21.73-4.16,32.91-1.46,11.18-2.26,17.11-2.4,17.81-.42,4.72-.62,9.65-.62,14.79s.31,10.66.94,16.56c.63,5.9,1.94,11.39,3.96,16.45,2.01,5.07,4.61,9.06,7.81,11.97,2.64,2.22,5.93,3.89,9.89,5,3.96,1.11,8.09,1.56,12.39,1.35,4.3-.21,8.4-.66,12.29-1.35,3.89-.69,7.64-1.67,11.25-2.92,2.64-.83,6.04-2.47,10.21-4.89,4.16-2.43,7.88-4.65,11.14-6.66,3.26-2.01,4.96-3.09,5.1-3.23.4-.12.74-.44,1.05-.87,2.27-1.21,3.53-3.34,5.24-5.36,2-2.37,5-3.58,7.2-5.73,2.52-2.46,3.76-5.87,5.16-9.03,1.64-3.69,3.24-7.38,4.78-11.11.22-.53.18-1.1-.01-1.62.04-.2.11-.41.14-.61.05-.7.01-1.3-.02-1.9.98-1.46,2.02-3.74,3.15-6.88,1.73-4.86,3.16-9.48,4.27-13.85,1.11-4.37,1.6-6.56,1.46-6.56,1.53,0,3.3.24,5.31.73,2.01.49,4.06,1.01,6.14,1.56,2.08.56,3.96.83,5.62.83h3.33c.83.14,1.49.38,1.98.73.48.35.73.87.73,1.56v2.92c-1.11,9.99-1.87,17.35-2.29,22.07-.28,4.58.07,8.88,1.04,12.91.28,1.39.97,3.4,2.08,6.04s2.43,5.27,3.96,7.91c1.53,2.64,2.92,4.37,4.16,5.21,1.53.83,4.86,1.42,10,1.77,5.14.34,10.83.17,17.08-.52,6.25-.69,10.97-1.94,14.16-3.75,1.67-.41,2.92-.83,3.75-1.25.83-.42,1.39-.97,1.67-1.67.55-.28.97-.48,1.25-.63,3.47-1.39,6.87-3.19,10.21-5.41.28-.28.82-.67,1.48-1.11.19,7.18,1.18,12.23,3,15.06,3.61,5.41,11.28,7.74,23.01,6.98,11.73-.76,21.83-4.2,30.3-10.31,2.64-2.08,4.44-3.19,5.42-3.33.97-.14,2.15.35,3.54,1.46,2.08,1.95,6.32,4.44,12.7,7.5,4.3,1.94,7.67,3.16,10.1,3.64,2.43.49,5.87.45,10.31-.1,7.08-.83,12.5-3.05,16.24-6.66l1.04-1.25c.58-.29,1.06-.53,1.55-.77.99.88,2.13,1.43,3.45,1.61,1.95.42,4.17.11,6.66-.94,2.5-1.04,4.62-2.4,6.35-4.06,1.73-1.67,2.6-3.19,2.6-4.58,0-1.66,5-7.95,14.99-18.85,10-10.9,20.2-21.24,30.61-31.03,10.41-9.79,16.04-14.27,16.87-13.43.56.83-.56,6.04-3.33,15.62-3.19,9.58-4.79,18.81-4.79,27.7,0,6.11.52,10.24,1.56,12.39,1.04,2.15,4.48,6.14,10.31,11.98,7.22,7.22,13.5,11.52,18.85,12.91,5.34,1.39,11.49.48,18.43-2.71,4.03-1.95,10.62-5.07,19.78-9.37,2.56-1.02,5.08-2.3,7.56-3.81,1.18,2.63,2.24,4.26,3.16,4.85.56.42,1.32.66,2.29.73.97.07,1.87.1,2.71.1h2.29c3.33.28,7.43.76,12.29,1.46,6.8.97,11.59,1.53,14.37,1.66,2.77.14,5.07-.35,6.87-1.46,1.39-.69,2.81-1.25,4.27-1.66s3.19-.63,5.21-.63,3.5.04,4.48.11c.97.07,2.81.24,5.52.52,2.71.28,4.34.42,4.89.42,1.81,1.66,5.07,1.81,9.79.42,4.58-.28,8.26-.97,11.04-2.08,2.92-1.39,6.25-4.02,10-7.91,1.11-.56,1.8-.9,2.08-1.04,2.67-1.13,5.25-2.52,7.77-4.03-1.12,3.74-2.28,7.2-3.5,10.28-1.53,3.89-4.55,10.93-9.06,21.14-4.51,10.21-8.05,19.02-10.62,26.45-2.57,7.43-4.34,14.89-5.31,22.39-.55,2.92-.69,5.83-.42,8.75.28,2.92.69,5.83,1.25,8.75.56,2.92,1.56,5.34,3.02,7.29s3.09,3.33,4.89,4.17c1.81.83,4.13.69,6.98-.42,2.85-1.11,6.01-3.33,9.48-6.66,4.58-4.44,8.02-10.07,10.31-16.87,2.29-6.81,4.13-15.07,5.52-24.78s2.57-16.38,3.54-19.99c1.39-5.28,2.88-9.24,4.48-11.87s3.44-4.37,5.52-5.21,4.2-1.28,6.35-1.35c2.15-.07,5.03-.38,8.64-.94,3.61-.56,7.15-1.6,10.62-3.12.14,0,.8-.24,1.98-.73,1.18-.49,2.6-1.04,4.27-1.67s3.47-1.35,5.41-2.19c1.94-.83,4.03-1.77,6.25-2.81,2.22-1.04,4.17-2.12,5.83-3.23,1.13-.63,2.48-1.6,4-2.82.41,1.21.81,2.23,1.21,3.03,1.18,2.36,3.44,5.07,6.77,8.12,3.06,2.92,5.35,4.72,6.87,5.41,1.11.55,2.36.83,3.75.83.69,0,1.46-.07,2.29-.21,2.36-.69,6.18-1.32,11.46-1.88,4.58-.14,9.44-1.73,14.58-4.79,4.02-2.64,7.29-4.51,9.79-5.62,1.94-.55,4.17-2.71,6.66-6.45.69-1.11,1.73-3.05,3.12-5.83,2.5-5.41,4.72-8.68,6.66-9.79,1.53-.69,2.85-.79,3.96-.31,1.11.49,2.22,1.7,3.33,3.64l.62,1.04c1.11,1.95,2.08,3.33,2.92,4.17,3.89,3.47,7.85,5.07,11.87,4.79.97,0,2.08-.34,3.33-1.04l1.04-.21c.69-.14,1.67-.52,2.92-1.15,1.25-.62,2.67-1.46,4.27-2.5,1.6-1.04,3.44-2.5,5.52-4.37,2.08-1.88,4.2-4.06,6.35-6.56,2.15-2.5,4.41-5.66,6.77-9.47s4.58-8.02,6.66-12.6l.42-.21c.28-.97.52-1.73.73-2.29l.31-.83c1.8,0,4.41.49,7.81,1.46,3.4.97,6.07,1.46,8.02,1.46,1.25,0,2.29.07,3.12.21.69.14,1.28.35,1.77.63.48.28.73.76.73,1.46v2.92c-1.11,9.86-1.81,16.94-2.08,21.24-.28,4.58,0,8.75.83,12.5.56,2.5,1.84,5.97,3.85,10.41,2.01,4.44,3.85,7.22,5.52,8.33,1.39.83,4.48,1.39,9.27,1.67,4.79.28,10.03.1,15.72-.52,5.69-.63,10.06-1.77,13.12-3.44,1.53-.42,2.64-.83,3.33-1.25.83-.42,1.39-.97,1.67-1.66.08-.04.13-.07.21-.11.23.25.46.5.73.74,3.19,2.77,6.39,3.19,9.58,1.25,3.19-1.94,6.73-6.52,10.62-13.74,2.5-4.72,6.21-10.52,11.14-17.39,4.93-6.87,9.65-12.77,14.16-17.7,4.51-4.93,7.53-7.39,9.06-7.39.69.42.07,4.1-1.88,11.04-2.92,6.11-4.37,10.14-4.37,12.08,0,2.22-1.46,6.25-4.37,12.08-3.47,7.91-5.28,13.08-5.41,15.51-.14,2.43,1.25,4.97,4.16,7.6,3.47,3.33,6.59,4.16,9.37,2.5,2.78-1.67,6.25-6.53,10.41-14.58,5.97-11.66,14.37-24.16,25.2-37.49,10.83-13.33,18.12-19.99,21.87-19.99,1.39,0,1.67,1.25.83,3.75-2.92,10-5,18.53-6.25,25.62-1.39,6.94-2.05,13.16-1.98,18.64.07,5.48,1.01,10.03,2.81,13.64,1.8,3.61,4.34,6.56,7.6,8.85,3.26,2.29,7.6,4.13,13.01,5.52,5.69,1.66,10.48,2.43,14.37,2.29,3.75-.14,9.02-1.18,15.83-3.12,5.83-1.67,11.45-4.65,16.87-8.95,4.03-3.33,8.19-6.46,12.5-9.37.41-.28,1.42-.94,3.02-1.98.98-.64,1.74-1.15,2.41-1.61.17,7.39,1.16,12.57,3.01,15.45,3.61,5.41,11.28,7.74,23.01,6.98,11.73-.76,21.83-4.2,30.3-10.31,2.64-2.08,4.44-3.19,5.41-3.33s2.15.35,3.54,1.46c2.08,1.95,6.32,4.44,12.7,7.5,4.3,1.94,7.67,3.16,10.1,3.64,2.43.49,5.87.45,10.31-.1,7.08-.83,12.5-3.05,16.24-6.66l1.04-1.25c3.05-1.53,4.72-2.36,5-2.5,2.92-1.25,5.69-2.77,8.33-4.58.42-.28,1.04-.69,1.87-1.25.83-.56,1.53-1.01,2.08-1.35.55-.35,1.25-.83,2.08-1.46.83-.62,1.53-1.21,2.08-1.77s1.18-1.18,1.88-1.88,1.21-1.35,1.56-1.98c.34-.63.66-1.32.94-2.08s.42-1.49.42-2.19c0-3.33-.94-5.17-2.81-5.52ZM672.73,379.55c2.42-4.84,5.33-9.4,8.07-14.06,3.07-5.23,5.6-10.79,8.22-16.26,3.09-6.43,6.05-12.96,8.19-19.77,2.1-6.66,3.06-13.59,5.1-20.26.42-1.36,2.32-1.34,2.74,0,2,6.27,1.23,13.04-.21,19.34-2.72,11.92-7.45,23.51-13.64,34.04-3.23,5.5-6.83,10.76-10.42,16.03-3.65,5.36-7.33,10.76-9.45,16.94-.11.69-.7,1.03-1.33,1-.77.03-1.52-.5-1.47-1.35,0,0,0,0,0,0-.5-5.45,1.83-10.87,4.21-15.64ZM328.04,403.43c-.14.56-.97,1.25-2.5,2.08-2.64,1.39-3.61,3.19-2.92,5.42.55,1.66.24,3.23-.94,4.69-1.18,1.46-1.77,2.88-1.77,4.27,0,2.22-1.81,6.46-5.41,12.7-2.08,4.03-4.79,9.3-8.12,15.83-1.94,3.89-4.93,6.8-8.96,8.75-4.16,1.53-8.61,2.29-13.33,2.29s-7.78-.83-9.16-2.5c-1.53-1.94-1.87-6.11-1.04-12.5.83-6.39,2.43-11.24,4.79-14.58,1.94-3.19,4.3-6.8,7.08-10.83,2.08-3.47,6.07-7.63,11.97-12.5,5.9-4.86,10.31-7.63,13.22-8.33,2.92-.83,5.9-.97,8.95-.42,3.05.56,5.42,1.73,7.08,3.54.83.83,1.18,1.53,1.04,2.08ZM573.89,435.6c-1.11,4.79-4.79,7.88-11.04,9.27-1.67.28-3.71.14-6.14-.42-2.43-.56-4.69-1.39-6.77-2.5-2.08-1.11-3.47-2.15-4.16-3.12-.56-.83.97-5.1,4.58-12.81,3.61-7.7,6.25-12.74,7.91-15.1,1.25-1.67,2.29-4.3,3.12-7.91.69-3.89,1.53-5.83,2.5-5.83.83,0,2.98,5.07,6.46,15.2,3.47,10.69,4.65,18.43,3.54,23.22ZM624.8,525.88c-2.78-3.33-2.43-10.97,1.04-22.91.14-.42.28-.69.42-.83.28-1.39.69-2.36,1.25-2.92,1.11-.97,2.08-1.04,2.92-.21.56.56.76,1.46.63,2.71-.97,10.27-3.05,18.33-6.25,24.16ZM771.52,424.88c-.56,4.58-1.95,7.98-4.17,10.21-2.5,2.92-4.1,5.62-4.79,8.12-.69,2.36-3.54,5.56-8.54,9.58-1.39,1.11-2.57,2.01-3.54,2.71-.83.56-1.74,1.11-2.71,1.66-.83.56-1.74.94-2.71,1.15s-1.94.38-2.92.52h-4.16c-3.33,0-5.69-.28-7.08-.83-1.39-.56-2.43-1.6-3.12-3.12-.69-1.67-1.18-4.37-1.46-8.12-.14-4.86-.76-8.19-1.87-10-.83-2.08-.56-5.55.83-10.41,1.53-4.86,3.82-10.14,6.87-15.83,3.19-5.55,6.59-10.14,10.21-13.75,4.03-4.3,6.73-6.8,8.12-7.5.42-.28.9-.41,1.46-.41.69,0,1.46.35,2.29,1.04,1.25.83,2.5,2.5,3.75,5,1.25,2.64,1.88,4.86,1.88,6.66,0,2.78,2.15,6.32,6.46,10.62,2.77,2.78,4.51,4.86,5.21,6.25.56,1.39.56,3.54,0,6.46ZM776.72,400.51c-.56-.83-1.11-2.78-1.66-5.83-.69-4.3-.69-7.08,0-8.33.14-.28.42-.55.83-.83.97.56,1.46,3.4,1.46,8.54,0,3.33-.21,5.48-.63,6.46ZM1181.98,403.43c-.14.56-.97,1.25-2.5,2.08-2.64,1.39-3.61,3.19-2.92,5.42.55,1.66.24,3.23-.94,4.69-1.18,1.46-1.77,2.88-1.77,4.27,0,2.22-1.8,6.46-5.41,12.7-2.08,4.03-4.79,9.3-8.12,15.83-1.95,3.89-4.93,6.8-8.96,8.75-4.16,1.53-8.61,2.29-13.33,2.29s-7.78-.83-9.16-2.5c-1.53-1.94-1.88-6.11-1.04-12.5s2.43-11.24,4.79-14.58c1.94-3.19,4.3-6.8,7.08-10.83,2.08-3.47,6.08-7.63,11.98-12.5,5.9-4.86,10.31-7.63,13.22-8.33,2.92-.83,5.9-.97,8.95-.42s5.42,1.73,7.08,3.54c.83.83,1.18,1.53,1.04,2.08Z"/>
</svg>